<svg id="visual" viewBox="0 0 900 675" width="900" height="675" xmlns="http://www.w3.org/2000/svg" xmlns:xlink="http://www.w3.org/1999/xlink" version="1.1"><rect x="0" y="0" width="900" height="675" fill="#060c1e"></rect><g transform="translate(456.5575428327327 333.7393558770671)"><path d="M89.3 -120.4C112.4 -106.1 125.6 -75.6 129.7 -46.1C133.8 -16.7 128.7 11.7 118 36.3C107.2 60.9 90.8 81.7 70.2 101.1C49.6 120.6 24.8 138.8 0 138.9C-24.9 138.9 -49.8 120.8 -73.4 102.3C-97 83.8 -119.4 64.9 -132.3 39.6C-145.2 14.2 -148.7 -17.6 -137.5 -42.4C-126.3 -67.2 -100.5 -85 -75.1 -98.6C-49.8 -112.2 -24.9 -121.6 4.1 -127.2C33.1 -132.8 66.1 -134.7 89.3 -120.4" fill="#3d00ff"></path></g></svg>